{"title":"Warrior 2011 DvDScr XviD Feel-Free","uid":6846890,"size":1862997745,"categoryP":"video","categoryS":"movies","magnet":"?xt=urn:btih:0b23c2f18decd772eaeea397f35491ff31115356&amp;dn=Warrior+2011+DvDScr+XviD+Feel-Free&amp;tr=udp%3A%2F%2Ftracker.openbittorrent.com%3A80&amp;tr=udp%3A%2F%2Fopen.demonii.com%3A1337&amp;tr=udp%3A%2F%2Ftracker.coppersurfer.tk%3A6969&amp;tr=udp%3A%2F%2Fexodus.desync.com%3A6969","seeders":0,"leechers":0,"uploader":".BONE.","files":9,"time":1322384950,"description":"Genre: Action | Drama | Sport\nLanguage:English\n &lt;a href=&quot;\nhttp://www.imdb.com/title/tt1291584/&quot; rel=&quot;nofollow&quot; target=&quot;_NEW&quot;&gt;\nhttp://www.imdb.com/title/tt1291584/&lt;/a&gt;\n\nSource:INF1N1TY Thanks!\n\nFormat : AVI\nFormat/Info : Audio Video Interleave\nFile size : 1.73 GiB\nDuration : 2h 19mn\nOverall bit rate : 1 775 Kbps\n\nVideo\nID : 0\nFormat : MPEG-4 Visual\nFormat profile : Advanced Simple@L5\nFormat settings, BVOP : Yes\nFormat settings, QPel : No\nFormat settings, GMC : No warppoints\nFormat settings, Matrix : Default (H.263)\nCodec ID : XVID\nCodec ID/Hint : XviD\nDuration : 2h 19mn\nBit rate : 1 318 Kbps\nWidth : 640 pixels\nHeight : 272 pixels\nDisplay aspect ratio : 2.35:1\nFrame rate : 23.976 fps\nColor space : YUV\nChroma subsampling : 4:2:0\nBit depth : 8 bits\nScan type : Progressive\nBits/(Pixel*Frame) : 0.316\nStream size : 1.29 GiB (74%)\nWriting library : XviD 1.2.1 (UTC 2008-12-04)\n\nAudio\nID : 1\nFormat : AC-3\nFormat/Info : Audio Coding 3\nMode extension : CM (complete main)\nCodec ID : 2000\nDuration : 2h 19mn\nBit rate mode : Constant\nBit rate : 448 Kbps\nChannel(s) : 2 channels\nChannel positions : Front: L R\nSampling rate : 48.0 KHz\nBit depth : 16 bits\nStream size : 448 MiB (25%)\nAlignment : Aligned on interleaves\nInterleave, duration : 42 ms (1.00 video frame)\nInterleave, preload duration : 512 ms\n\n\nPlot:\nThe youngest son (Hardy) of an alcoholic former boxer (Nolte) returns home, where he's trained by his father for competition in a mixed martial arts tournament.","torrent":{"xt":"urn:btih:0b23c2f18decd772eaeea397f35491ff31115356","amp;dn":"Warrior+2011+DvDScr+XviD+Feel-Free","amp;tr":["udp%3A%2F%2Ftracker.openbittorrent.com%3A80","udp%3A%2F%2Fopen.demonii.com%3A1337","udp%3A%2F%2Ftracker.coppersurfer.tk%3A6969","udp%3A%2F%2Fexodus.desync.com%3A6969"],"infoHash":"0b23c2f18decd772eaeea397f35491ff31115356","infoHashBuffer":{"type":"Buffer","data":[11,35,194,241,141,236,215,114,234,238,163,151,243,84,145,255,49,17,83,86]},"announce":[],"urlList":[]}}